
<svg width="500" height="500" viewBox="0 0 500 500" fill="none" xmlns="http://www.w3.org/2000/svg">
<g id="icon">
<g id="icon_2">
<path id="Vector" d="M496.236 312.463H254.116V187.437H379.096L379.119 187.482L496.236 312.463Z" fill="url(#paint0_linear_5_30)"/>
<path id="Vector_2" d="M496.236 312.463C490.603 334.357 482.004 355.377 470.677 374.942C448.663 412.936 417.091 444.509 379.096 466.523C331.418 494.035 275.995 505.048 221.421 497.856C166.846 490.663 116.169 465.667 77.2465 426.742C38.3241 387.817 13.331 337.138 6.14222 282.563C-1.04653 227.988 9.97074 172.566 37.4858 124.889C59.5058 86.9431 91.0702 55.4181 129.044 33.4456C153.329 19.3751 179.828 9.53437 207.411 4.34368C222.795 1.4443 238.416 -0.00994379 254.07 5.11702e-05H379.096V125.004H254.07C232.127 125.01 210.571 130.791 191.57 141.767C172.569 152.743 156.791 168.526 145.822 187.532C134.852 206.537 129.078 228.094 129.08 250.038C129.081 271.981 134.858 293.538 145.829 312.542C156.801 331.545 172.581 347.327 191.583 358.3C210.586 369.274 232.142 375.053 254.085 375.056C276.029 375.06 297.587 369.288 316.593 358.321C335.599 347.354 351.384 331.577 362.362 312.577L496.236 312.463Z" fill="url(#paint1_linear_5_30)"/>
<path id="Vector_3" d="M496.236 312.463C490.603 334.357 482.004 355.377 470.677 374.942C448.663 412.936 417.091 444.509 379.096 466.523C331.418 494.035 275.995 505.048 221.421 497.856C166.846 490.663 116.169 465.667 77.2465 426.742C38.3241 387.817 13.331 337.138 6.14222 282.563C-1.04653 227.988 9.97074 172.566 37.4858 124.889C59.5058 86.9431 91.0702 55.4181 129.044 33.4456C153.329 19.3751 179.828 9.53437 207.411 4.34368C222.795 1.4443 238.416 -0.00994379 254.07 5.11702e-05H379.096V125.004H254.07C232.127 125.01 210.571 130.791 191.57 141.767C172.569 152.743 156.791 168.526 145.822 187.532C134.852 206.537 129.078 228.094 129.08 250.038C129.081 271.981 134.858 293.538 145.829 312.542C156.801 331.545 172.581 347.327 191.583 358.3C210.586 369.274 232.142 375.053 254.085 375.056C276.029 375.06 297.587 369.288 316.593 358.321C335.599 347.354 351.384 331.577 362.362 312.577L496.236 312.463Z" fill="url(#paint2_linear_5_30)"/>
</g>
</g>
<defs>
<linearGradient id="paint0_linear_5_30" x1="253.887" y1="187.231" x2="425.092" y2="358.436" gradientUnits="userSpaceOnUse">
<stop stop-color="#0D85FD"/>
<stop offset="1" stop-color="#3A9DFF"/>
</linearGradient>
<linearGradient id="paint1_linear_5_30" x1="303.313" y1="484.308" x2="167.61" y2="11.0418" gradientUnits="userSpaceOnUse">
<stop stop-color="#0D85FD"/>
<stop offset="0.1" stop-color="#1388FD"/>
<stop offset="0.67" stop-color="#2F97FF"/>
<stop offset="1" stop-color="#3A9DFF"/>
</linearGradient>
<linearGradient id="paint2_linear_5_30" x1="303.313" y1="484.308" x2="167.61" y2="11.0418" gradientUnits="userSpaceOnUse">
<stop stop-color="#0D85FD"/>
<stop offset="0.1" stop-color="#1388FD"/>
<stop offset="0.67" stop-color="#2F97FF"/>
<stop offset="1" stop-color="#3A9DFF"/>
</linearGradient>
</defs>
</svg>
